# xmcd
#
# Track frame offsets:
#	150
#	16410
#	26577
#	36497
#	50052
#	62740
#	71462
#
# Disc length: 1200 seconds
#
# Revision: 0
# Processed by: cddbd v1.5.2PL0 Copyright (c) Steve Scherf et al.
# Submitted via: EasyCDDAExtractor 10.0.6.1
#
DISCID=5f04ae07
DTITLE=Various Artist - Eddie Crook Co-Vol.1995-09
DYEAR=1995
DGENRE=Gospel
TTITLE0=McGregors - Trumpet In The Ground
TTITLE1=Ermil Flatford - That OLd 4 Room Shack
TTITLE2=MaHarreys - I'm Gonna Find A Mountain
TTITLE3=Tammy Benchoff - Something Wonderful Happened Last Night
TTITLE4=Vicci Newland - Cast All Your Cares Upon Jesus
TTITLE5=Sounds Of Victory - Better Than Before
TTITLE6=Jerri Holliday - Precious Lamb Of God
EXTD=
EXTT0=
EXTT1=
EXTT2=
EXTT3=
EXTT4=
EXTT5=
EXTT6=
PLAYORDER=
